<svg width="58" height="58" viewBox="0 0 58 58" fill="none" xmlns="http://www.w3.org/2000/svg">
<path d="M22.6259 15.3782C23.207 14.7979 23.5702 14 23.5702 13.1295C23.5702 12.2591 23.207 11.4611 22.6259 10.8808L12.6021 0.942996C12.021 0.362685 11.222 0 10.423 0C9.624 0 8.75234 0.362685 8.17124 0.942996L7.0817 2.03108L21.5364 16.4663L22.6259 15.3782Z" fill="white"/>
<path d="M37.2297 40.9445C36.9392 41.2344 36.5033 41.3793 36.1401 41.3793C35.7769 41.3793 35.341 41.2344 35.0504 40.9445L17.0347 23.0469C16.7441 22.7571 16.5989 22.3223 16.5989 21.96C16.5989 21.5977 16.7441 21.1629 17.0347 20.8731L19.2867 18.6993L4.83051 4.27979C3.88614 5.22176 3.01442 6.0913 2.43326 6.67098C0.980381 8.04772 0.108617 9.8592 0.0359727 11.8156C-0.18196 15.0763 0.617161 18.1921 1.70682 21.2354C2.86913 23.9164 4.39465 26.4525 6.06547 28.8437C12.0223 37.7563 19.5046 45.5095 28.2219 51.6686C29.6748 52.7555 31.2003 53.6975 32.7985 54.567C36.4307 56.3785 40.2808 57.6828 44.4215 57.9726C47.182 58.19 49.9425 57.1031 51.8312 55.0742L53.7926 53.1178L39.4091 38.6983L37.2297 40.9445Z" fill="white"/>
<path d="M57.1283 45.4093L47.1045 35.3989C46.5234 34.8186 45.7244 34.4559 44.8527 34.4559C43.9811 34.4559 43.1821 34.8186 42.601 35.3989L41.5115 36.5596L55.9661 50.9948L57.0557 49.9067C57.6368 49.3264 58 48.5285 58 47.658C58 46.7876 57.7094 45.9896 57.1283 45.4093Z" fill="white"/>
</svg>
