<svg width="35" height="35" viewBox="0 0 35 35" fill="none" xmlns="http://www.w3.org/2000/svg">
<path d="M13.6536 9.27065C14.0042 8.92082 14.2234 8.43979 14.2234 7.91503C14.2234 7.39028 14.0042 6.90925 13.6536 6.55942L7.60471 0.568478C7.25405 0.218642 6.7719 0 6.28974 0C5.80759 0 5.28158 0.218642 4.93092 0.568478L4.27344 1.22442L12.9961 9.92659L13.6536 9.27065Z" fill="white"/>
<path d="M24.2234 24.7072C24.0344 24.8821 23.7508 24.9696 23.5144 24.9696C23.2781 24.9696 22.9945 24.8821 22.8055 24.7072L11.0836 13.906C10.8945 13.7311 10.8 13.4687 10.8 13.2501C10.8 13.0314 10.8945 12.769 11.0836 12.5941L12.5488 11.2822L3.14296 2.58008C2.5285 3.14856 1.96132 3.67332 1.5832 4.02316C0.637882 4.85402 0.0706712 5.94724 0.0234055 7.12794C-0.118391 9.09576 0.401554 10.9761 1.11054 12.8128C1.86679 14.4308 2.85937 15.9613 3.94648 17.4044C7.82226 22.7831 12.6906 27.4621 18.3625 31.1791C19.3078 31.8351 20.3004 32.4036 21.3402 32.9283C23.7035 34.0216 26.2086 34.8087 28.9027 34.9836C30.6988 35.1148 32.4949 34.4589 33.7239 33.2344L35 32.0537L25.6414 23.3516L24.2234 24.7072Z" fill="white"/>
<path d="M34.4741 27.3746L28.4252 21.34C28.0745 20.9901 27.5923 20.7715 27.0663 20.7715C26.5403 20.7715 26.0582 20.9901 25.7075 21.34L25.05 22.0396L33.7727 30.7418L34.4302 30.0859C34.7809 29.736 35.0001 29.255 35.0001 28.7302C35.0001 28.2055 34.8247 27.7245 34.4741 27.3746Z" fill="white"/>
</svg>
