<svg width="35" height="35" viewBox="0 0 35 35" fill="none" xmlns="http://www.w3.org/2000/svg">
<path d="M13.6536 9.27071C14.0043 8.92087 14.2234 8.43984 14.2234 7.91508C14.2234 7.39033 14.0043 6.9093 13.6536 6.55946L7.60472 0.568481C7.25406 0.218643 6.7719 0 6.28975 0C5.80759 0 5.28158 0.218643 4.93092 0.568481L4.27344 1.22443L12.9961 9.92665L13.6536 9.27071Z" fill="white"/>
<path d="M22.4639 24.7073C22.2886 24.8822 22.0256 24.9697 21.8065 24.9697C21.5873 24.9697 21.3243 24.8822 21.149 24.7073L10.2785 13.9061C10.1032 13.7312 10.0155 13.4688 10.0155 13.2501C10.0155 13.0315 10.1032 12.7691 10.2785 12.5942L11.6373 11.2823L2.91466 2.58008C2.34484 3.14856 1.81886 3.67333 1.4682 4.02317C0.591549 4.85403 0.0655379 5.94726 0.0217054 7.12797C-0.109792 9.0958 0.372387 10.9762 1.02987 12.8128C1.73119 14.4308 2.65168 15.9614 3.65982 17.4045C7.25409 22.7832 11.7688 27.4623 17.0287 31.1793C17.9054 31.8353 18.8259 32.4037 19.7902 32.9285C21.9818 34.0217 24.3049 34.8089 26.8034 34.9838C28.469 35.115 30.1346 34.4591 31.2743 33.2346L32.4577 32.0539L23.7789 23.3517L22.4639 24.7073Z" fill="white"/>
<path d="M34.474 27.3747L28.4251 21.34C28.0744 20.9901 27.5923 20.7715 27.0663 20.7715C26.5403 20.7715 26.0581 20.9901 25.7075 21.34L25.05 22.0396L33.7726 30.7419L34.4301 30.0859C34.7808 29.7361 35 29.2551 35 28.7303C35 28.2055 34.8246 27.7245 34.474 27.3747Z" fill="white"/>
</svg>
