<svg width="36" height="39" viewBox="0 0 36 39" fill="none" xmlns="http://www.w3.org/2000/svg">
<path d="M11.5312 11.5312H6.375V8.25H11.5312V11.5312ZM18.5625 8.25V11.5312H13.4062V8.25H18.5625ZM25.5938 8.25V11.5312H20.4375V8.25H25.5938ZM32.625 8.25V11.5312H27.4688V8.25H32.625ZM32.625 16.6875H27.4688V13.4062H32.625V16.6875ZM32.625 20.6719L27.4688 21.1406V18.5625H32.625V20.6719ZM11.5312 18.5625V22.5469L6.375 23.0156V18.5625H11.5312ZM11.5312 16.6875H6.375V13.4062H11.5312V16.6875ZM18.5625 16.6875H13.4062V13.4062H18.5625V16.6875ZM20.4375 16.6875V13.4062H25.5938V16.6875H20.4375ZM18.5625 21.9375L13.4062 22.4063V18.5625H18.5625V21.9375ZM20.4375 18.5625H25.5938V21.2812L20.4375 21.75V18.5625ZM35.4375 23.25V5.4375H6.375V4.96875C6.375 2.625 4.5 0.75 2.15625 0.75C1.35938 0.75 0.75 1.35938 0.75 2.15625C0.75 2.95312 1.35938 3.5625 2.15625 3.5625C2.95312 3.5625 3.5625 4.17188 3.5625 4.96875V28.4062C3.5625 30.75 5.4375 32.625 7.78125 32.625H9.1875H29.8125H34.0312C34.8281 32.625 35.4375 32.0156 35.4375 31.2188C35.4375 30.4219 34.8281 29.8125 34.0312 29.8125H7.78125C6.98438 29.8125 6.375 29.2031 6.375 28.4062V25.8281L35.4375 23.25Z" fill="white"/>
<path d="M12 35.4375C12 36.9909 10.7409 38.25 9.1875 38.25C7.63406 38.25 6.375 36.9909 6.375 35.4375C6.375 33.8841 7.63406 32.625 9.1875 32.625C10.7409 32.625 12 33.8841 12 35.4375Z" fill="white"/>
<path d="M32.625 35.4375C32.625 36.9909 31.3659 38.25 29.8125 38.25C28.2591 38.25 27 36.9909 27 35.4375C27 33.8841 28.2591 32.625 29.8125 32.625C31.3659 32.625 32.625 33.8841 32.625 35.4375Z" fill="white"/>
</svg>
