<svg width="55" height="60" viewBox="0 0 55 60" fill="none" xmlns="http://www.w3.org/2000/svg">
<path d="M17.6042 17.6042H9.58333V12.5H17.6042V17.6042ZM28.5417 12.5V17.6042H20.5208V12.5H28.5417ZM39.4792 12.5V17.6042H31.4583V12.5H39.4792ZM50.4167 12.5V17.6042H42.3958V12.5H50.4167ZM50.4167 25.625H42.3958V20.5209H50.4167V25.625ZM50.4167 31.823L42.3958 32.5521V28.5417H50.4167V31.823ZM17.6042 28.5417V34.7396L9.58333 35.4688V28.5417H17.6042ZM17.6042 25.625H9.58333V20.5209H17.6042V25.625ZM28.5417 25.625H20.5208V20.5209H28.5417V25.625ZM31.4583 25.625V20.5209H39.4792V25.625H31.4583ZM28.5417 33.7917L20.5208 34.5209V28.5417H28.5417V33.7917ZM31.4583 28.5417H39.4792V32.7709L31.4583 33.5V28.5417ZM54.7917 35.8334V8.12504H9.58333V7.39587C9.58333 3.75004 6.66666 0.833374 3.02083 0.833374C1.78124 0.833374 0.833328 1.78129 0.833328 3.02087C0.833328 4.26046 1.78124 5.20837 3.02083 5.20837C4.26041 5.20837 5.20833 6.15629 5.20833 7.39587V43.8542C5.20833 47.5 8.125 50.4167 11.7708 50.4167H13.9583H46.0417H52.6042C53.8437 50.4167 54.7917 49.4688 54.7917 48.2292C54.7917 46.9896 53.8437 46.0417 52.6042 46.0417H11.7708C10.5312 46.0417 9.58333 45.0938 9.58333 43.8542V39.8438L54.7917 35.8334Z" fill="white"/>
<path d="M18.3333 54.7917C18.3333 57.2082 16.3748 59.1668 13.9583 59.1668C11.5419 59.1668 9.58333 57.2082 9.58333 54.7917C9.58333 52.3753 11.5419 50.4167 13.9583 50.4167C16.3748 50.4167 18.3333 52.3753 18.3333 54.7917Z" fill="white"/>
<path d="M50.4167 54.7917C50.4167 57.2082 48.4581 59.1668 46.0417 59.1668C43.6252 59.1668 41.6667 57.2082 41.6667 54.7917C41.6667 52.3753 43.6252 50.4167 46.0417 50.4167C48.4581 50.4167 50.4167 52.3753 50.4167 54.7917Z" fill="white"/>
</svg>
