<svg width="100" height="100" viewBox="0 0 100 100" fill="none" xmlns="http://www.w3.org/2000/svg">
<circle cx="50" cy="50" r="50" fill="white"/>
<path d="M44.503 54.7409C40.4864 54.7946 36.5226 53.8226 32.9865 51.917C29.4503 50.0114 26.4588 47.2351 24.295 43.8509C22.1312 40.4666 20.8665 36.5862 20.6207 32.5769C20.3748 28.5675 21.156 24.5617 22.8902 20.9384C24.6244 17.3151 27.2543 14.1942 30.5311 11.8709C33.808 9.54755 37.6234 8.09863 41.6164 7.66121C45.6094 7.22378 49.648 7.81231 53.3501 9.37112C57.0522 10.9299 60.2954 13.4075 62.7729 16.5694L58.1857 20.1636C56.3197 17.7822 53.877 15.9161 51.0886 14.7421C48.3003 13.568 45.2585 13.1247 42.251 13.4542C39.2435 13.7836 36.3698 14.8749 33.9018 16.6248C31.4337 18.3747 29.4529 20.7254 28.1467 23.4543C26.8406 26.1833 26.2522 29.2004 26.4374 32.2202C26.6225 35.24 27.5751 38.1626 29.2048 40.7116C30.8346 43.2606 33.0877 45.3516 35.7511 46.7869C38.4144 48.2222 41.3999 48.9542 44.4251 48.9138L44.503 54.7409Z" fill="#3D9AD1"/>
<rect x="58.9023" y="19.4442" width="3.61111" height="1.38889" transform="rotate(-38.4615 58.9023 19.4442)" fill="#3D9AD1"/>
<rect x="44.1666" y="48.8888" width="40" height="25" rx="12.5" fill="#3D9AD1"/>
<rect x="51.9445" y="52.4999" width="27.2222" height="17.7778" rx="8.88889" fill="white"/>
<rect x="44.1666" y="48.8888" width="7.77778" height="44.4444" fill="#3D9AD1"/>
<rect x="50" y="48.8888" width="7.5" height="2.5" fill="#3D9AD1"/>
<path d="M50 61.1233C50 60.3094 50.8112 59.7447 51.5745 60.0273C51.8453 60.1275 52.1436 60.124 52.4119 60.0174L52.9194 59.8157C53.5207 59.5768 54.1897 59.5714 54.7948 59.8007L54.8544 59.8233C55.4657 60.0549 56.1411 60.0522 56.7506 59.8158C57.3667 59.5768 58.05 59.5768 58.6661 59.8158C59.2756 60.0522 59.9509 60.0549 60.5622 59.8233L60.6044 59.8073C61.2226 59.5731 61.9043 59.5681 62.5259 59.7931L62.6872 59.8515C63.2767 60.0649 63.9243 60.0521 64.5049 59.8156C65.0914 59.5768 65.746 59.5663 66.3399 59.7861L66.479 59.8377C67.0795 60.06 67.741 60.0522 68.3361 59.8157C68.9374 59.5768 69.6063 59.5714 70.2114 59.8007L70.2711 59.8233C70.8824 60.0549 71.5578 60.0522 72.1672 59.8158C72.7834 59.5768 73.4666 59.5768 74.0828 59.8158C74.6922 60.0522 75.3676 60.0549 75.9789 59.8233L76.0386 59.8007C76.6437 59.5714 77.3126 59.5768 77.9139 59.8157L78.4215 60.0174C78.6898 60.124 78.988 60.1275 79.2588 60.0273C80.0221 59.7447 80.8333 60.3094 80.8333 61.1233V65.8315C80.8333 68.2871 78.8427 70.2777 76.3872 70.2777H54.4462C51.9906 70.2777 50 68.2871 50 65.8315V61.1233Z" fill="#3D9AD1"/>
<path d="M60.7932 25.842C60.7932 26.1111 64.1667 31.5401 64.1667 33.5907C64.1667 35.6413 62.0353 36.3888 60.7932 36.3888C59.5511 36.3888 57.5 35.6413 57.5 33.5907C57.5 31.5401 60.7932 25.573 60.7932 25.842Z" fill="#3D9AD1"/>
</svg>
