<svg width="60" height="60" viewBox="0 0 60 60" fill="none" xmlns="http://www.w3.org/2000/svg">
<path d="M30 60C46.5685 60 60 46.5685 60 30C60 13.4315 46.5685 0 30 0C13.4315 0 0 13.4315 0 30C0 46.5685 13.4315 60 30 60Z" fill="white"/>
<path d="M49.5841 39.0879H10.7084C10.2942 39.0879 9.95837 39.4237 9.95837 39.8379V40.5197C9.95837 40.9339 10.2942 41.2697 10.7084 41.2697H49.5841C49.9983 41.2697 50.3341 40.9339 50.3341 40.5197V39.8379C50.3341 39.4237 49.9983 39.0879 49.5841 39.0879Z" fill="#127C8A"/>
<path d="M12.3334 25.9971H9.95837V40.5425H12.3334V25.9971Z" fill="#127C8A"/>
<path d="M50.3341 25.9971H47.9591V40.5425H50.3341V25.9971Z" fill="#127C8A"/>
<path d="M23.417 26.7705C23.417 25.9421 24.0885 25.2705 24.917 25.2705H35.3755C36.204 25.2705 36.8755 25.9421 36.8755 26.7705V39.0887H23.417V26.7705Z" fill="#127C8A"/>
<path d="M31.6149 7.54965L30.4803 6.50739C30.1753 6.22716 29.6807 6.22716 29.3757 6.50739L6.55237 27.4739C6.24734 27.7541 6.24734 28.2084 6.55237 28.4887L7.68694 29.5309C7.99198 29.8111 8.48655 29.8111 8.79158 29.5309L31.6149 8.56443C31.9199 8.2842 31.9199 7.82987 31.6149 7.54965Z" fill="#127C8A"/>
<path d="M29.4369 6.50699L28.3023 7.54925C27.9973 7.82948 27.9973 8.28381 28.3023 8.56403L51.1305 29.535C51.4356 29.8153 51.9301 29.8153 52.2352 29.535L53.3697 28.4928C53.6748 28.2126 53.6748 27.7582 53.3697 27.478L30.5415 6.50699C30.2365 6.22677 29.7419 6.22677 29.4369 6.50699Z" fill="#127C8A"/>
<path d="M44.3965 10.7246H49.9382V20.1791L44.3965 15.4519V10.7246Z" fill="#127C8A"/>
<path d="M13.5414 52.0908V45.7458H15.5484C16.2444 45.7458 16.8324 45.8688 17.3124 46.1148C17.7924 46.3548 18.1554 46.7118 18.4014 47.1858C18.6534 47.6538 18.7794 48.2298 18.7794 48.9138C18.7794 49.5978 18.6534 50.1768 18.4014 50.6508C18.1554 51.1248 17.7924 51.4848 17.3124 51.7308C16.8324 51.9708 16.2444 52.0908 15.5484 52.0908H13.5414ZM14.0994 51.5958H15.5034C16.4094 51.5958 17.0844 51.3738 17.5284 50.9298C17.9724 50.4798 18.1944 49.8078 18.1944 48.9138C18.1944 48.0138 17.9724 47.3418 17.5284 46.8978C17.0844 46.4538 16.4094 46.2318 15.5034 46.2318H14.0994V51.5958ZM20.2035 52.0908V45.7458H24.1455V46.2228H20.7435V48.6348H23.9475V49.1118H20.7435V51.6138H24.1455V52.0908H20.2035ZM25.4681 52.0908V45.7458H29.3201V46.2228H26.0261V48.6438H29.1311V49.1208H26.0261V52.0908H25.4681ZM30.4867 52.0908V45.7458H34.3387V46.2228H31.0447V48.6438H34.1497V49.1208H31.0447V52.0908H30.4867ZM35.095 48.9138C35.095 48.2418 35.206 47.6658 35.428 47.1858C35.656 46.6998 35.983 46.3278 36.409 46.0698C36.835 45.8058 37.348 45.6738 37.948 45.6738C38.536 45.6738 39.043 45.8058 39.469 46.0698C39.901 46.3278 40.231 46.6998 40.459 47.1858C40.693 47.6658 40.81 48.2388 40.81 48.9048C40.81 49.5768 40.693 50.1558 40.459 50.6418C40.225 51.1278 39.892 51.5028 39.46 51.7668C39.034 52.0308 38.53 52.1628 37.948 52.1628C37.354 52.1628 36.844 52.0308 36.418 51.7668C35.992 51.5028 35.665 51.1278 35.437 50.6418C35.209 50.1558 35.095 49.5798 35.095 48.9138ZM35.689 48.9138C35.689 49.7778 35.881 50.4528 36.265 50.9388C36.649 51.4188 37.21 51.6588 37.948 51.6588C38.662 51.6588 39.22 51.4188 39.622 50.9388C40.024 50.4528 40.225 49.7778 40.225 48.9138C40.225 48.0438 40.024 47.3718 39.622 46.8978C39.226 46.4178 38.668 46.1778 37.948 46.1778C37.21 46.1778 36.649 46.4178 36.265 46.8978C35.881 47.3718 35.689 48.0438 35.689 48.9138ZM42.2289 52.0908V45.7458H44.7309C45.3849 45.7458 45.8919 45.8988 46.2519 46.2048C46.6119 46.5108 46.7919 46.9428 46.7919 47.5008C46.7919 47.8608 46.7109 48.1698 46.5489 48.4278C46.3869 48.6798 46.1619 48.8748 45.8739 49.0128C45.5859 49.1448 45.2529 49.2108 44.8749 49.2108L45.0459 49.1118H45.1719C45.4179 49.1118 45.6369 49.1718 45.8289 49.2918C46.0209 49.4058 46.1739 49.6038 46.2879 49.8858L47.1699 52.0908H46.5579L45.7299 49.9848C45.6159 49.6788 45.4509 49.4838 45.2349 49.3998C45.0189 49.3098 44.7429 49.2648 44.4069 49.2648H42.7869V52.0908H42.2289ZM42.7869 48.7968H44.6589C45.1689 48.7968 45.5559 48.6858 45.8199 48.4638C46.0899 48.2418 46.2249 47.9238 46.2249 47.5098C46.2249 47.0898 46.0899 46.7718 45.8199 46.5558C45.5559 46.3338 45.1689 46.2228 44.6589 46.2228H42.7869V48.7968Z" fill="black"/>
</svg>
