<svg width="20" height="20" viewBox="0 0 20 20" fill="none" xmlns="http://www.w3.org/2000/svg">
<path d="M14.9584 0.734375C13.2638 0.734375 11.4362 1.78663 10 4.59551C8.56417 1.78721 6.736 0.734375 5.04171 0.734375C2.40008 0.734375 0.083374 3.29313 0.083374 5.74551C0.083374 11.783 10 19.258 10 19.258C10 19.258 19.9167 11.783 19.9167 5.74551C19.9167 3.29342 17.5997 0.734375 14.9584 0.734375ZM10 18.524C8.25442 17.1342 0.666707 10.8006 0.666707 5.74551C0.712499 4.60787 1.18617 3.52801 1.99555 2.71582C2.77459 1.85821 3.87446 1.3502 5.04171 1.30937C6.75904 1.30937 8.2935 2.53528 9.47912 4.85425L10 5.87316L10.521 4.85425C11.7066 2.53528 13.241 1.30937 14.9584 1.30937C17.1663 1.30937 19.3334 3.50674 19.3334 5.74551C19.3334 10.8006 11.7457 17.1342 10 18.524Z" fill="#3D9AD1"/>
</svg>
