<svg width="20" height="20" viewBox="0 0 20 20" fill="none" xmlns="http://www.w3.org/2000/svg">
<path d="M14.9583 0.734375C13.2637 0.734375 11.4361 1.78663 9.99992 4.59551C8.56404 1.78721 6.73588 0.734375 5.04159 0.734375C2.39996 0.734375 0.083252 3.29313 0.083252 5.74551C0.083252 11.783 9.99992 19.258 9.99992 19.258C9.99992 19.258 19.9166 11.783 19.9166 5.74551C19.9166 3.29342 17.5996 0.734375 14.9583 0.734375ZM9.99992 18.524C8.2543 17.1342 0.666585 10.8006 0.666585 5.74551C0.712377 4.60787 1.18605 3.52801 1.99543 2.71582C2.77447 1.85821 3.87434 1.3502 5.04159 1.30937C6.75892 1.30937 8.29338 2.53528 9.479 4.85425L9.99992 5.87316L10.5208 4.85425C11.7065 2.53528 13.2409 1.30937 14.9583 1.30937C17.1662 1.30937 19.3333 3.50674 19.3333 5.74551C19.3333 10.8006 11.7455 17.1342 9.99992 18.524Z" fill="white"/>
</svg>
