<svg width="48" height="50" viewBox="0 0 48 50" fill="none" xmlns="http://www.w3.org/2000/svg">
<path d="M35.6667 11.875C35.6667 18.3187 30.4436 23.5417 24 23.5417C17.5564 23.5417 12.3333 18.3187 12.3333 11.875C12.3333 5.43139 17.5564 0.208374 24 0.208374C30.4436 0.208374 35.6667 5.43139 35.6667 11.875Z" fill="white"/>
<path d="M47.3333 49.7917V38.125C47.3333 36.375 46.4583 34.625 45 33.4584C41.7917 30.8334 37.7083 29.0834 33.625 27.9167C30.7083 27.0417 27.5 26.4584 24 26.4584C20.7917 26.4584 17.5833 27.0417 14.375 27.9167C10.2917 29.0834 6.20834 31.125 3.00001 33.4584C1.54167 34.625 0.666664 36.375 0.666664 38.125V49.7917H47.3333Z" fill="white"/>
</svg>
