<svg width="31" height="33" viewBox="0 0 31 33" fill="none" xmlns="http://www.w3.org/2000/svg">
<path d="M23 8.0625C23 12.2048 19.6423 15.5625 15.5 15.5625C11.3577 15.5625 8 12.2048 8 8.0625C8 3.92016 11.3577 0.5625 15.5 0.5625C19.6423 0.5625 23 3.92016 23 8.0625Z" fill="white"/>
<path d="M30.5 32.4375V24.9375C30.5 23.8125 29.9375 22.6875 29 21.9375C26.9375 20.25 24.3125 19.125 21.6875 18.375C19.8125 17.8125 17.75 17.4375 15.5 17.4375C13.4375 17.4375 11.375 17.8125 9.31249 18.375C6.68749 19.125 4.06251 20.4375 2.00001 21.9375C1.06251 22.6875 0.5 23.8125 0.5 24.9375V32.4375H30.5Z" fill="white"/>
</svg>
