<svg width="15" height="15" viewBox="0 0 15 15" fill="none" xmlns="http://www.w3.org/2000/svg">
<path d="M14.6128 12.7215L12.2375 10.3481C11.9145 10.0253 11.4774 9.91139 11.0594 9.98734L10.2233 9.15189C10.9644 8.20253 11.4014 6.98734 11.4014 5.6962C11.4014 2.56329 8.83608 0 5.7007 0C2.56531 0 0 2.56329 0 5.6962C0 8.82911 2.56531 11.3924 5.7007 11.3924C6.99286 11.3924 8.19001 10.9557 9.15912 10.2152L9.99523 11.0506C9.91922 11.4684 10.0332 11.9051 10.3563 12.2278L12.7316 14.6013C12.9976 14.8671 13.3396 15 13.6817 15C14.0237 15 14.3658 14.8671 14.6318 14.6013C15.1259 14.0696 15.1259 13.2342 14.6128 12.7215ZM5.6817 10.2342C3.17339 10.2342 1.12114 8.18354 1.12114 5.67721C1.12114 3.17088 3.17339 1.12025 5.6817 1.12025C8.19001 1.12025 10.2423 3.17088 10.2423 5.67721C10.2423 8.18354 8.19001 10.2342 5.6817 10.2342Z" fill="#3D9AD1"/>
</svg>
