<svg width="21" height="21" viewBox="0 0 21 21" fill="none" xmlns="http://www.w3.org/2000/svg">
<path d="M20.026 17.4479L16.7708 14.1927C16.3281 13.75 15.7292 13.5938 15.1562 13.6979L14.0104 12.5521C15.026 11.25 15.625 9.58333 15.625 7.8125C15.625 3.51563 12.1094 0 7.8125 0C3.51562 0 0 3.51563 0 7.8125C0 12.1094 3.51562 15.625 7.8125 15.625C9.58333 15.625 11.224 15.026 12.5521 14.0104L13.6979 15.1562C13.5938 15.7292 13.75 16.3281 14.1927 16.7708L17.4479 20.026C17.8125 20.3906 18.2812 20.5729 18.75 20.5729C19.2188 20.5729 19.6875 20.3906 20.0521 20.026C20.7292 19.2969 20.7292 18.151 20.026 17.4479ZM7.78646 14.0365C4.34896 14.0365 1.53646 11.224 1.53646 7.78646C1.53646 4.34896 4.34896 1.53646 7.78646 1.53646C11.224 1.53646 14.0365 4.34896 14.0365 7.78646C14.0365 11.224 11.224 14.0365 7.78646 14.0365Z" fill="#3D9AD1"/>
</svg>
